# xmcd CD database file
#
# Track frame offsets:
#	150
#	12998
#	25398
#	38181
#	50964
#	63370
#	76756
#	89782
#	102778
#	118234
#	133529
#	144822
#	157873
#	171556
#	183969
#	199177
#	214088
#	227205
#	240335
#	254931
#	267144
#	280173
#	291741
#
# Disc length: 4072 seconds
#
# Revision: 0
# Processed by: cddbd v1.5.1PL0 Copyright (c) Steve Scherf et al.
# Submitted via: CDex 1.51
#
DISCID=5b0fe617
DTITLE=Various Artist - Memphis Jug Band and Cannon's Jug Stompers, Disc B
DYEAR=2005
DGENRE=Blues
TTITLE0=Memphis Jug Band - Lindberg Hop
TTITLE1=Memphis Jug Band - Sugar Pudding
TTITLE2=Memphis Jug Band - A Black Woman Is Like A Black Snake
TTITLE3=Memphis Jug Band - On The Road Again
TTITLE4=Memphis Jug Band - Whitehouse Station Blues
TTITLE5=Memphis Jug Band - Stealin', Stealin'
TTITLE6=Memphis Jug Band - Jug Band Waltz
TTITLE7=Memphis Jug Band - Mississippi River Waltz
TTITLE8=Will Shade - Better Leave That Stuff Alone
TTITLE9=Will Shade - She Stabbed Me With An Ice-Pick
TTITLE10=Memphis Jug Band - I Can't Stand It
TTITLE11=Memphis Jug Band - What's The Matter?
TTITLE12=Minnie Wallace - Dirty Butter
TTITLE13=Minnie Wallace - Old Folks Started It, The
TTITLE14=Hattie Hart - Won't You Be Kind To Me?
TTITLE15=Hattie Hart - You Wouldn't, Would You Papa?
TTITLE16=Memphis Jug Band - Feed Your Friend With A Long Handled Spoon
TTITLE17=Memphis Jug Band - I Can Beat You Plenty
TTITLE18=Memphis Jug Band - Taking Your Place
TTITLE19=Memphis Jug Band - Tired Of You Driving Me
TTITLE20=Memphis Jug Band - Memphis Yo Yo Blues
TTITLE21=Memphis Jug Band - K.C. Moan
TTITLE22=Memphis Jug Band - I Whipped My Woman With A Single Tree
EXTD=YEAR: 2005
EXTT0=
EXTT1=
EXTT2=
EXTT3=
EXTT4=
EXTT5=
EXTT6=
EXTT7=
EXTT8=
EXTT9=
EXTT10=
EXTT11=
EXTT12=
EXTT13=
EXTT14=
EXTT15=
EXTT16=
EXTT17=
EXTT18=
EXTT19=
EXTT20=
EXTT21=
EXTT22=
PLAYORDER=
